PathFileType	4	(X/Y/Z)	C:/Users/beibeiliu/ov580/test_trc\sequence.38_training_dense_left.trc
DataRate	CameraRate	NumFrames	NumMarkers	Units	OrigDataRate	OrigDataStartFrame	OrigNumFrames
120	120	23	19	mm	120	196	312
Frame#	Time	ThumbCMC			ThumbMCP			ThumbIP			ThumbTip			IndexMCP			IndexPIP			IndexTip			MiddleMCP			MiddlePIP			MiddleTip			RingMCP			RingPIP			RingTip			PinkyMCP			PinkyPIP			PinkyTip			BackHand1			BackHand2			BackHand3	
		X0	Y0	Z0	X1	Y1	Z1	X2	Y2	Z2	X3	Y3	Z3	X4	Y4	Z4	X5	Y5	Z5	X6	Y6	Z6	X7	Y7	Z7	X8	Y8	Z8	X9	Y9	Z9	X10	Y10	Z10	X11	Y11	Z11	X12	Y12	Z12	X13	Y13	Z13	X14	Y14	Z14	X15	Y15	Z15	X16	Y16	Z16	X17	Y17	Z17	X18	Y18	Z18	
195	1.625	-238.542	23.5084	18.2052	-239.742	26.8636	-9.26719	-244.475	21.8929	-33.8916	-241.913	18.5729	-53.4527	-242.768	-8.37694	-40.0825	-220.37	8.32722	-55.2969	-212.28	25.296	-34.6261	-224.882	-18.1865	-43.1301	-204.014	-1.06126	-52.1068	-204.945	17.0311	-20.7186	-207.542	-27.2865	-32.6528	-193.251	-5.31872	-41.012	-196.063	10.1657	-16.9902	-198.435	-33.027	-22.7342	-190.593	-16.1638	-35.3443	-196.822	3.79443	-15.8196	-223.956	-30.9033	15.3145	-222.941	-20.2129	37.8852	-243.169	-11.2306	21.1325	
196	1.63333	-239.553	20.0751	17.7626	-241.177	26.881	-8.20473	-244.742	24.9776	-32.4087	-244.464	16.9292	-57.9926	-244.7	-8.12777	-40.9515	-225.225	5.12501	-55.4427	-212.682	24.7844	-34.5239	-226.765	-19.0052	-40.248	-204.857	2.78148	-49.0096	-210.092	19.2077	-20.0378	-209.365	-25.5876	-35.1927	-199.386	0.803108	-40.527	-201.923	11.9925	-16.2559	-199.744	-31.7405	-22.2508	-190.975	-12.7962	-35.0517	-195.503	4.99274	-15.4446	-221.949	-31.7285	15.5568	-221.809	-22.4697	40.8442	-244.743	-8.33228	24.5868	
197	1.64167	-244.576	22.1094	17.3839	-242.496	27.4019	-8.03735	-245.575	21.7195	-33.5043	-245.219	19.2954	-56.0255	-245.876	-7.65659	-42.7235	-225.384	8.78837	-54.6983	-216.823	26.7075	-36.3616	-226.353	-19.4435	-40.5207	-212.015	3.87472	-51.9567	-211.799	19.2152	-19.7586	-211.903	-24.4558	-35.0348	-201.455	-0.568632	-41.3886	-200.69	10.7292	-16.0888	-200.254	-31.0255	-23.0235	-191.812	-11.2666	-34.0322	-196.834	7.37003	-17.9361	-223.917	-30.241	14.3365	-220.44	-19.244	42.0947	-243.456	-11.7368	22.2533	
198	1.65	-245.077	24.1475	19.9334	-243.049	25.4464	-8.60556	-246.032	25.0525	-30.6608	-245.2	18.2174	-55.0087	-246.851	-8.17013	-38.5732	-230.859	10.3941	-55.8637	-216.258	26.0269	-34.9002	-225.722	-18.1238	-43.5388	-208.395	4.77288	-49.0167	-212.076	18.9045	-20.3264	-210.2	-26.1107	-33.1562	-197.733	-0.586328	-40.1022	-203.247	12.5272	-18.1908	-198.663	-31.6186	-20.3715	-190.364	-10.8691	-34.1265	-196.094	7.60796	-16.8799	-222.839	-32.1908	13.1632	-221.812	-19.5276	39.9877	-244.133	-11.0799	26.0202	
199	1.65833	-243.242	18.4259	17.7587	-245.003	23.3795	-10.1763	-248.338	23.0204	-35.1481	-244.303	19.6686	-53.1511	-244.908	-9.88277	-41.5042	-229.835	8.48429	-54.276	-218.972	27.3715	-32.8509	-229.113	-17.6016	-43.2076	-211.602	2.39558	-51.1338	-208.575	17.2048	-22.2871	-212.283	-24.3118	-34.0133	-201.412	-0.943161	-41.2902	-202.794	11.9754	-15.5471	-195.808	-29.8879	-25.5892	-192.394	-10.4973	-34.4695	-195.276	6.97117	-15.3309	-224.585	-28.8772	13.0622	-221.068	-20.7718	40.7283	-248.149	-11.7891	22.3505	
200	1.66667	-245.41	18.7399	16.7889	-245.91	25.2879	-10.6904	-248.448	27.1771	-34.3805	-241.949	20.2085	-54.0593	-244.737	-10.1875	-42.6845	-231.881	9.01437	-54.9178	-220.963	27.5879	-31.0253	-226.812	-21.01	-39.0297	-212.893	6.93776	-51.4393	-208.823	15.6612	-21.6979	-214.12	-23.8619	-32.2042	-200.422	-2.01911	-42.7792	-204.526	13.2888	-17.0549	-198.342	-29.3091	-22.0295	-191.902	-9.02692	-34.0349	-196.512	9.55095	-13.5705	-220.631	-29.2301	16.9538	-218.709	-21.0473	41.7929	-242.459	-13.4918	27.2268	
201	1.675	-246.328	19.5089	16.0566	-246.413	32.0635	-8.65983	-246.487	30.6032	-30.657	-240.032	27.1964	-53.5855	-244.638	-10.8442	-39.4371	-228.559	10.2168	-53.1329	-221.619	24.4496	-31.5688	-229.692	-19.0364	-41.6251	-212.356	6.13478	-50.7311	-209.506	17.3581	-22.6498	-208.52	-25.0931	-35.9081	-197.883	1.06187	-40.9341	-201.907	13.4399	-14.7835	-195.234	-29.5215	-24.0299	-189.496	-5.19696	-34.2383	-196.567	8.51953	-15.5309	-220.456	-31.2838	13.0065	-220.487	-19.204	42.192	-243.377	-13.5129	27.1796	
202	1.68333	-244.958	20.5199	20.1711	-242.06	25.4638	-10.4482	-242.794	29.4438	-32.0409	-236.889	30.7017	-54.9862	-248.301	-10.6537	-37.2207	-232.789	10.2304	-54.3199	-222.623	22.1436	-30.5499	-230.536	-19.5115	-39.5768	-214.782	6.84817	-52.4651	-208.172	16.0892	-23.8738	-213.303	-23.2946	-35.2205	-203.233	-1.42431	-44.5224	-203.425	13.7868	-20.3774	-196.009	-27.8168	-26.237	-190.649	-9.5361	-36.3401	-196.451	10.1993	-17.9479	-221.408	-29.623	12.5479	-221.593	-21.8091	40.5398	-242.3	-14.8212	22.5095	
203	1.69167	-246.368	18.2738	17.3948	-242.539	29.0134	-11.9789	-241.647	31.7901	-34.0497	-233.13	28.0349	-52.569	-246.215	-13.5146	-37.3351	-235.867	6.82674	-55.004	-224.442	21.6823	-29.6595	-229.521	-20.6598	-38.4541	-216.409	4.05872	-52.9671	-213.804	17.5122	-25.0984	-209.614	-25.4503	-33.3946	-202.743	1.63322	-42.0191	-201.484	14.0319	-16.818	-197.026	-29.4324	-21.0942	-192.222	-8.35232	-36.233	-197.873	8.2078	-21.188	-218.131	-32.0136	13.2645	-216.369	-24.6395	42.5813	-244.498	-14.1204	23.5631	
204	1.7	-243.824	14.7864	19.0621	-241.719	27.3362	-9.97538	-237.987	29.5409	-28.7907	-230.821	27.5138	-54.7461	-248.577	-12.2301	-40.4206	-231.295	5.00344	-52.4136	-226.247	20.8701	-26.5302	-227.05	-22.8244	-38.9296	-215.135	-0.014959	-53.8449	-210.203	14.2371	-23.8178	-212.579	-25.1562	-33.4362	-202.732	0.316182	-42.4164	-201.494	13.0751	-21.5369	-196.827	-31.0334	-20.8405	-191.831	-11.6277	-37.2248	-194.462	9.15774	-22.5241	-221.026	-30.8024	15.3779	-219.719	-23.016	41.3392	-242.949	-16.9251	26.475	
205	1.70833	-246.771	16.4815	18.2483	-240.554	27.49	-6.47587	-237.849	26.6123	-32.7073	-231.863	28.5586	-53.4785	-247.555	-15.5099	-35.0712	-235.831	5.76942	-52.8942	-226.489	20.288	-28.7509	-230.406	-23.0842	-38.8481	-213.672	-1.37794	-52.7893	-212.42	13.6148	-22.208	-209.006	-28.086	-35.6238	-200.702	-1.96607	-43.1389	-205.326	12.6981	-23.0745	-198.9	-32.3339	-24.6245	-192.299	-14.3844	-37.6007	-198.275	6.90539	-27.3322	-221.553	-33.5596	16.4833	-215.209	-26.0083	42.5328	-241.206	-18.7122	27.0706	
206	1.71667	-245.311	13.6577	18.2947	-239.845	24.7324	-7.37953	-237.08	24.8023	-30.5624	-231.542	25.6498	-55.9303	-245.171	-18.1855	-35.4312	-234.487	4.86211	-51.6155	-228.317	20.1328	-27.7046	-230.234	-23.4323	-39.669	-213.279	-2.57725	-51.3425	-214.269	13.462	-24.3565	-210.124	-30.0944	-31.9259	-203.517	-4.76534	-44.1161	-203	9.79928	-18.7021	-198.073	-33.6307	-18.792	-194.392	-16.3426	-37.7112	-200.001	7.54893	-24.9763	-222.017	-34.1797	16.7441	-216.078	-26.8943	45.1522	-243.674	-18.5329	24.8574	
207	1.725	-245.124	12.5417	21.3343	-240.548	24.6856	-6.61291	-239.849	24.9215	-31.4979	-234.158	26.9841	-52.964	-247.468	-18.2891	-36.9793	-237.107	1.36256	-51.8385	-229.273	17.5152	-29.4206	-229.226	-25.437	-39.3705	-215.714	-3.9056	-52.2703	-213.221	12.3766	-22.3315	-214.784	-28.9196	-33.3428	-201.564	-8.37703	-43.4969	-205.414	8.37049	-22.1856	-195.642	-36.079	-21.2789	-191.648	-18.244	-38.4032	-195.187	4.91297	-24.2345	-221.296	-33.8394	18.033	-218.615	-29.0226	42.8718	-241.964	-19.0568	29.3495	
208	1.73333	-245.469	12.7596	23.094	-241.256	20.4526	-6.49934	-241.657	25.291	-30.916	-233.43	24.1638	-54.7308	-246.558	-20.3011	-35.8583	-238.326	1.96658	-52.1729	-229.668	16.5764	-29.0685	-230.315	-27.8311	-36.9803	-218.077	-3.93379	-51.2991	-214.044	10.3482	-19.6913	-211.389	-32.7641	-31.5102	-206.781	-5.38607	-42.3325	-206.252	8.30736	-18.4791	-201.155	-36.0175	-21.7161	-195.47	-16.4663	-37.4591	-197.472	1.98736	-27.6824	-220.473	-34.0142	19.7793	-217.013	-28.6781	44.2416	-240.816	-21.5541	28.6688	
209	1.74167	-246.094	11.4457	22.9641	-243.145	22.4164	-3.39162	-242.937	22.859	-31.895	-236	22.5965	-51.3353	-249.808	-20.2693	-32.6488	-237.259	-1.16485	-50.7153	-228.58	14.3042	-26.4357	-229.314	-28.3665	-37.2744	-216.632	-2.63266	-50.4291	-218.44	12.7373	-21.415	-215.446	-31.3524	-31.2011	-207.982	-7.22681	-43.9974	-208.337	8.73127	-17.9451	-197.965	-36.0835	-21.5086	-192.827	-16.8347	-36.7666	-199.426	4.63326	-21.4932	-220.533	-36.7442	19.0708	-221.419	-29.3029	40.4318	-242.076	-23.0651	30.559	
210	1.75	-248.429	8.82974	21.3774	-244.422	20.9346	-3.78055	-244.675	21.2624	-27.9651	-240.094	22.3918	-52.3714	-253.084	-18.4139	-36.6615	-239.536	3.02566	-50.3407	-228.972	14.3452	-27.158	-230.779	-25.936	-38.9049	-220.119	-3.64601	-50.3416	-216.807	10.7087	-16.9186	-212.446	-30.7778	-32.0407	-208.784	-7.62904	-41.974	-208.903	8.11823	-18.2257	-197.336	-37.1424	-20.2948	-194.034	-14.9761	-35.6263	-202.251	4.57416	-20.6537	-223.213	-36.7338	21.5332	-218.055	-28.0662	45.8063	-244.659	-23.0571	26.9035	
211	1.75833	-246.982	8.71877	24.466	-247.64	17.2667	-4.60116	-251.518	21.3717	-27.8283	-245.999	20.4863	-46.9851	-253.837	-16.4891	-36.6494	-238.742	1.56642	-49.65	-227.024	16.0332	-23.2078	-229.926	-26.2051	-36.5522	-219.337	-2.43667	-49.1099	-215.908	11.1523	-15.8293	-212.109	-29.1828	-34.447	-206.453	-2.63472	-39.7634	-209.219	8.66224	-12.9581	-199.051	-34.5706	-23.4268	-195.862	-14.907	-34.1159	-202.87	5.21367	-19.9093	-220.47	-38.8692	18.8377	-218.274	-30.1649	42.7052	-247.763	-22.7252	28.9225	
212	1.76667	-252.997	10.069	25.4343	-255.213	20.079	0.373128	-257.134	15.9238	-25.2155	-252.855	14.5335	-45.2557	-252.247	-15.6659	-34.9306	-240.223	3.83237	-49.26	-229.335	20.7664	-25.2593	-234.592	-22.7209	-34.1596	-217.071	-0.291887	-46.1855	-219.07	14.0352	-16.4604	-214.272	-27.3629	-31.1187	-208.369	0.360277	-36.7682	-209.969	10.331	-14.5635	-200.265	-32.0847	-17.893	-196.29	-11.4919	-33.2932	-199.453	6.32906	-16.4691	-218.927	-36.6063	20.5394	-218.035	-29.6488	46.5043	-241.757	-23.3499	28.3197	
213	1.775	-249.17	6.96429	29.4116	-257.304	17.1432	0.270966	-258.631	9.71376	-22.612	-259.76	7.7732	-47.58	-249.237	-17.4768	-35.7941	-240.483	3.84685	-48.645	-228.725	20.1984	-28.7586	-230.686	-21.2469	-38.2984	-220.331	1.24329	-46.8674	-216.893	14.1515	-16.2116	-212.447	-26.1745	-30.2565	-208.565	1.46433	-36.9041	-213.174	12.3478	-13.6469	-199.792	-28.9407	-20.2423	-199.018	-7.4667	-32.2504	-203.4	11.1023	-13.2043	-217.742	-36.668	19.9534	-216.607	-28.2669	45.0751	-244.381	-21.5825	31.7061	
214	1.78333	-251.394	5.6904	29.4084	-257.613	10.1288	-0.582433	-260.051	5.37034	-22.7957	-260.495	4.31197	-41.6744	-250.259	-19.7046	-34.3549	-239.016	0.563268	-47.5372	-234.477	21.6218	-25.4903	-231.912	-23.1584	-34.0445	-224.218	6.15753	-44.2041	-224.219	16.1609	-14.4914	-210.993	-24.9756	-29.3923	-207.532	0.584062	-37.1789	-212.62	11.4513	-9.53531	-198.103	-28.118	-19.9838	-197.653	-4.22681	-31.0127	-204.262	12.4567	-10.7702	-219.702	-37.5374	19.0735	-218.104	-27.4688	45.0033	-242.465	-26.3139	31.9442	
215	1.79167	-250.987	2.94556	28.4405	-258.944	8.21018	1.92	-262.216	3.39067	-20.8985	-263.553	1.9826	-38.6504	-249.653	-22.6387	-28.067	-241.094	-2.81254	-47.4899	-236.389	18.9253	-28.5785	-229.576	-22.8965	-35.54	-224.916	1.85825	-44.9728	-225.959	15.7209	-11.9981	-213.955	-23.1332	-32.6363	-207.756	1.46205	-35.4599	-216.238	12.8015	-11.1631	-196.801	-27.6542	-21.4121	-198.994	-6.66855	-31.9609	-207.531	12.1464	-12.2231	-216.86	-35.9785	20.0574	-219.741	-28.4713	48.0289	-243.792	-27.9558	30.4567	
216	1.8	-251.618	3.91839	33.9405	-260.536	5.18376	2.29628	-265.669	2.17645	-17.3251	-266.784	-3.57324	-38.3784	-252.414	-24.4887	-28.1365	-243.418	-1.2688	-46.1871	-240.819	19.213	-27.8702	-235.959	-24.3969	-31.9233	-228.062	4.46273	-43.8374	-225.568	13.8603	-12.1866	-215.862	-25.0344	-26.9612	-211.541	1.78607	-34.4346	-218.904	12.1754	-8.82743	-201.985	-28.2155	-20.2307	-201.468	-8.05956	-32.1081	-210.934	10.7783	-13.4318	-221.559	-36.6261	21.2506	-216.279	-29.1764	45.7646	-242.757	-27.2339	32.6467	
217	1.80833	-257.969	1.25619	31.627	-265.009	2.94199	4.51335	-268.014	-0.201889	-14.091	-267.421	-7.33147	-35.1851	-255.4	-26.5961	-28.1643	-248.05	-9.22357	-46.7016	-247.206	16.5224	-28.5749	-236.27	-24.8238	-35.3823	-231.41	1.32782	-44.1745	-229.376	14.9506	-14.0799	-217.719	-24.2181	-29.6671	-213.413	-0.0691085	-35.3875	-222.366	11.6976	-8.00518	-202.542	-27.5554	-16.8785	-200.654	-7.11646	-31.3809	-211.9	9.45377	-11.0162	-222.19	-37.3626	22.161	-217.591	-27.6349	47.8927	-243.369	-28.3005	33.8979	
